<svg width="200" height="260" viewBox="0 0 200 260" fill="none" xmlns="http://www.w3.org/2000/svg">
  <!-- iPad Outline -->
  <rect x="20" y="20" width="160" height="220" rx="12" stroke="black" stroke-width="3"/>
  <rect x="26" y="26" width="148" height="208" rx="8" stroke="black" stroke-width="1"/>
  
  <!-- Camera Dot -->
  <circle cx="100" cy="12" r="3" fill="black"/>
  
  <!-- Hand/Finger -->
  <path d="M160 260 V 180 Q 160 140 130 120 L 110 50 Q 105 40 100 40 Q 95 40 90 50 L 80 80 Q 70 100 70 130 Q 70 150 50 160" stroke="black" stroke-width="3" stroke-linecap="round" stroke-linejoin="round"/>
  <!-- Thumb -->
  <path d="M160 180 Q 140 180 120 160" stroke="black" stroke-width="3" stroke-linecap="round"/>
  
  <!-- Finger covering camera area (simplified) -->
  <path d="M100 10 L 100 40" stroke="black" stroke-width="3" stroke-linecap="round"/>
  
  <!-- Hand fill (white to cover iPad lines) -->
  <path d="M160 260 V 180 Q 160 140 130 120 L 110 50 Q 105 40 100 40 Q 95 40 90 50 L 80 80 Q 70 100 70 130 Q 70 150 50 160 L 50 260 Z" fill="white" stroke="none"/>
  <!-- Redraw lines on top of fill -->
  <path d="M160 260 V 180 Q 160 140 130 120 L 110 50 Q 105 40 100 40 Q 95 40 90 50 L 80 80 Q 70 100 70 130 Q 70 150 50 160" stroke="black" stroke-width="3" stroke-linecap="round" stroke-linejoin="round" fill="none"/>
  
</svg>
